HIERARCHY
ROOT SpineBase
{
  OFFSET 0.000000 0.000000 0.000000
  CHANNELS 6 Xposition Yposition Zposition Zrotation Xrotation Yrotation
  JOINT SpineMid
  {
    OFFSET 0.000000 26.652445 0.000000
    CHANNELS 3 Zrotation Xrotation Yrotation
    JOINT SpineShoulder
    {
      OFFSET -0.020461 19.942221 -0.647510
      CHANNELS 3 Zrotation Xrotation Yrotation
      JOINT Neck
      {
        OFFSET -0.032809 6.670649 -0.501500
        CHANNELS 3 Zrotation Xrotation Yrotation
        JOINT Head
        {
          OFFSET -2.616728 13.463682 -0.712011
          CHANNELS 3 Zrotation Xrotation Yrotation
          End Site
          {
            OFFSET 0 0 0
          }
        }
      }
      JOINT ShoulderLeft
      {
        OFFSET -13.915383 -2.288979 7.352975
        CHANNELS 3 Zrotation Xrotation Yrotation
        JOINT ElbowLeft
        {
          OFFSET -4.266871 -18.749515 3.299466
          CHANNELS 3 Zrotation Xrotation Yrotation
          JOINT WristLeft
          {
            OFFSET -9.412777 -12.456139 8.566036
            CHANNELS 3 Zrotation Xrotation Yrotation
            JOINT HandLeft
            {
              OFFSET -0.545451 -1.782704 -2.789179
              CHANNELS 3 Zrotation Xrotation Yrotation
              JOINT HandTipLeft
              {
                OFFSET -1.126127 0.372738 -0.328353
                CHANNELS 3 Zrotation Xrotation Yrotation
                End Site
                {
                  OFFSET 0 0 0
                }
              }
              JOINT ThumbLeft
              {
                OFFSET 0.099897 -0.398711 -3.359923
                CHANNELS 3 Zrotation Xrotation Yrotation
                End Site
                {
                  OFFSET 0 0 0
                }
              }
            }
          }
        }
      }
      JOINT ShoulderRight
      {
        OFFSET 10.234821 -1.573708 -10.243147
        CHANNELS 3 Zrotation Xrotation Yrotation
        JOINT ElbowRight
        {
          OFFSET 7.895884 -17.899987 -3.746973
          CHANNELS 3 Zrotation Xrotation Yrotation
          JOINT WristRight
          {
            OFFSET -1.672148 -16.915008 -11.309636
            CHANNELS 3 Zrotation Xrotation Yrotation
            JOINT HandRight
            {
              OFFSET -1.691588 -4.060373 -0.254440
              CHANNELS 3 Zrotation Xrotation Yrotation
              JOINT HandTipRight
              {
                OFFSET -3.254802 -4.038704 -2.761474
                CHANNELS 3 Zrotation Xrotation Yrotation
                End Site
                {
                  OFFSET 0 0 0
                }
              }
              JOINT ThumbRight
              {
                OFFSET 3.523019 -3.102644 2.356730
                CHANNELS 3 Zrotation Xrotation Yrotation
                End Site
                {
                  OFFSET 0 0 0
                }
              }
            }
          }
        }
      }
    }
  }
  JOINT HipLeft
  {
    OFFSET -6.067884 0.998681 -0.068420
    CHANNELS 3 Zrotation Xrotation Yrotation
    JOINT KneeLeft
    {
      OFFSET -26.206454 4.911572 -8.366107
      CHANNELS 3 Zrotation Xrotation Yrotation
      JOINT AnkleLeft
      {
        OFFSET -2.475322 -34.175622 -6.585410
        CHANNELS 3 Zrotation Xrotation Yrotation
        JOINT FootLeft
        {
          OFFSET -5.958882 -2.591500 -8.171530
          CHANNELS 3 Zrotation Xrotation Yrotation
          End Site
          {
            OFFSET 0 0 0
          }
        }
      }
    }
  }
  JOINT HipRight
  {
    OFFSET 5.286993 1.460277 -5.895459
    CHANNELS 3 Zrotation Xrotation Yrotation
    JOINT KneeRight
    {
      OFFSET -17.895606 4.469304 -22.907594
      CHANNELS 3 Zrotation Xrotation Yrotation
      JOINT AnkleRight
      {
        OFFSET -4.952903 -31.986714 -4.348286
        CHANNELS 3 Zrotation Xrotation Yrotation
        JOINT FootRight
        {
          OFFSET -5.097809 -1.720161 -9.436203
          CHANNELS 3 Zrotation Xrotation Yrotation
          End Site
          {
            OFFSET 0 0 0
          }
        }
      }
    }
  }
}
MOTION
Frames: 15
Frame Time: 0.033333
50.648239 33.195084 373.966941 -40.005266 43.153219 -46.892627 -0.482829 -1.285465 61.483885 -0.973378 -1.401883 -2.413414 9.213944 0.680321 15.050376 0.000000 0.000000 0.000000 6.498010 54.451759 -10.967747 43.520594 6.871344 -4.617628 12.916138 -26.742974 43.061231 41.759466 -61.253430 14.838605 0.000000 0.000000 0.000000 0.000000 0.000000 0.000000 -3.640362 59.729903 85.102141 171.703832 19.863409 -67.549177 27.038992 -5.771905 -36.779786 -12.513453 25.624519 46.548149 0.000000 0.000000 0.000000 0.000000 0.000000 0.000000 63.386689 22.111036 79.671220 -10.446584 1.918239 -22.651576 -30.278434 33.790427 0.774811 0.000000 0.000000 0.000000 11.014809 9.499369 19.143450 12.261516 -26.577490 43.783024 53.740981 -45.381868 8.619380 0.000000 0.000000 0.000000
50.956571 33.108750 373.489260 -40.463825 43.258119 -47.011147 -0.428001 -1.298305 61.824221 -0.903484 -1.384867 -2.391724 10.984791 1.037489 16.011703 0.000000 0.000000 0.000000 6.211567 55.036571 -10.882241 43.426423 6.523284 -6.239681 12.784746 -22.734671 42.576309 49.418948 -60.480027 26.364684 0.000000 0.000000 0.000000 0.000000 0.000000 0.000000 -6.365214 61.277952 89.138254 -172.894750 15.001666 -81.702906 19.805911 -9.053901 -21.557272 -8.462206 25.400351 37.331936 0.000000 0.000000 0.000000 0.000000 0.000000 0.000000 63.342775 22.655236 80.711083 -10.559204 3.079930 -23.594223 -20.685901 38.279953 -17.863734 0.000000 0.000000 0.000000 9.963757 9.948115 19.832751 12.418860 -26.896878 43.489482 55.227078 -46.281409 9.744516 0.000000 0.000000 0.000000
50.912972 33.325523 373.458012 -40.573713 43.486060 -46.734681 -0.336450 -1.186389 61.747617 -0.715041 -1.173015 -2.209717 10.487477 0.321937 15.588261 0.000000 0.000000 0.000000 6.929146 54.905210 -11.250284 43.245867 5.982378 -5.902863 13.148296 -23.035531 42.288051 46.957074 -59.495979 26.552418 0.000000 0.000000 0.000000 0.000000 0.000000 0.000000 -3.855603 64.328539 89.721339 -162.640897 6.040771 -90.206082 8.969888 -9.450735 -7.523136 3.305089 18.543592 25.106883 0.000000 0.000000 0.000000 0.000000 0.000000 0.000000 66.237119 25.304646 79.464105 -13.174118 5.895306 -23.286857 -8.044245 34.793148 -38.271830 0.000000 0.000000 0.000000 9.744904 9.760757 20.232998 12.449309 -26.823845 42.910273 55.611429 -46.655932 10.209255 0.000000 0.000000 0.000000
50.427018 33.760613 373.915024 -39.912927 44.225808 -45.905745 -0.253433 -0.831698 61.153984 -0.420833 -0.781272 -1.850981 6.037006 -2.857740 12.305647 0.000000 0.000000 0.000000 8.378168 54.241694 -12.603804 43.067006 5.864298 -4.562027 14.401434 -27.761991 43.665827 37.975845 -57.944036 18.654695 0.000000 0.000000 0.000000 0.000000 0.000000 0.000000 13.531076 65.383895 75.849724 -152.273200 -5.709658 -88.928013 4.591720 -17.449740 -2.634515 9.834410 20.911907 10.099865 0.000000 0.000000 0.000000 0.000000 0.000000 0.000000 69.225719 26.017239 77.134562 -15.295393 7.706629 -21.667318 -1.788707 33.851458 -51.228002 0.000000 0.000000 0.000000 10.373749 8.512879 19.585409 12.237330 -26.553002 42.377230 55.325707 -46.628170 10.138657 0.000000 0.000000 0.000000
49.707515 34.345546 373.913930 -40.129162 45.340381 -44.981491 -0.207290 -0.148580 61.190326 0.041037 -0.111328 -1.329627 1.579526 -7.115870 8.371123 0.000000 0.000000 0.000000 9.966531 52.000888 -13.966735 42.922291 6.375645 -2.824557 17.158937 -38.048821 49.653673 22.933682 -53.075524 1.522915 0.000000 0.000000 0.000000 0.000000 0.000000 0.000000 24.261438 60.124349 64.968633 -145.662703 -11.510264 -85.143781 6.327853 -22.937651 -2.971145 13.356916 27.071106 -2.354250 0.000000 0.000000 0.000000 0.000000 0.000000 0.000000 72.156625 26.948290 76.052816 -15.727816 8.904514 -21.451453 -0.875975 31.255035 -56.034119 0.000000 0.000000 0.000000 12.215225 7.589190 18.659968 11.268508 -26.204460 42.380766 56.511925 -47.434074 10.721787 0.000000 0.000000 0.000000
49.086035 34.555401 374.457137 -39.397487 45.834228 -44.416746 -0.398328 -0.027405 60.588948 0.230820 0.113012 -1.112795 -3.975547 -10.214109 3.645194 0.000000 0.000000 0.000000 10.872375 51.705387 -14.718903 43.108046 6.492652 0.877177 22.248449 -47.879149 56.907603 5.786989 -43.487096 -14.329401 0.000000 0.000000 0.000000 0.000000 0.000000 0.000000 25.961693 52.603836 59.422278 -142.751273 -14.845858 -84.109730 7.440836 -23.881550 -4.632560 12.336930 22.402093 3.159206 0.000000 0.000000 0.000000 0.000000 0.000000 0.000000 73.275985 26.760949 75.524518 -14.518188 9.256281 -21.814409 -3.668565 30.728273 -55.595307 0.000000 0.000000 0.000000 13.204389 6.736124 16.596032 10.703655 -25.938684 43.403552 56.697523 -47.426423 10.718846 0.000000 0.000000 0.000000
48.885394 34.473539 374.351572 -40.523258 45.799432 -44.355480 -0.204311 0.254952 61.174340 0.405135 0.085346 -1.045259 -3.728383 -10.474547 3.653245 0.000000 0.000000 0.000000 10.577042 51.419955 -14.591238 43.215218 5.659014 1.730732 36.479784 -57.227547 77.756682 6.224509 -33.520484 -28.208504 0.000000 0.000000 0.000000 0.000000 0.000000 0.000000 19.374951 50.336837 62.044112 -157.087198 -5.889785 -84.991421 10.587527 -17.884451 -11.192577 9.116836 20.640218 17.331227 0.000000 0.000000 0.000000 0.000000 0.000000 0.000000 75.555911 28.828624 74.003307 -13.908389 9.961073 -21.995519 -6.834430 33.394289 -54.812287 0.000000 0.000000 0.000000 13.507058 7.508241 17.185548 10.741248 -26.046727 43.404872 57.443533 -47.941024 11.109334 0.000000 0.000000 0.000000
48.799101 34.630885 374.203230 -40.536830 45.838387 -44.605017 -0.217141 0.700670 61.712650 0.309673 0.226138 -1.031831 -3.917523 -10.297669 3.751502 0.000000 0.000000 0.000000 11.127595 49.754864 -14.538350 42.727345 5.895189 0.686615 37.995367 -57.781305 79.447540 9.241778 -34.962655 -29.804701 0.000000 0.000000 0.000000 0.000000 0.000000 0.000000 13.791980 43.734595 60.734061 171.657004 8.423744 -79.791914 24.552518 11.651891 -27.233121 7.505020 11.273672 36.422722 0.000000 0.000000 0.000000 0.000000 0.000000 0.000000 75.447088 29.369039 74.713671 -12.340345 9.685536 -23.225649 -11.955137 31.909930 -47.747501 0.000000 0.000000 0.000000 13.326427 7.605677 17.388651 10.901963 -26.164585 43.497929 57.484656 -47.940549 11.102883 0.000000 0.000000 0.000000
49.024729 34.668277 373.956515 -40.636630 45.535033 -45.052956 -0.448514 0.395756 61.899300 0.359062 0.275769 -1.020044 0.025948 -7.912219 7.383896 0.000000 0.000000 0.000000 10.703544 48.916586 -14.073987 42.802476 6.840422 -0.189673 30.995676 -53.909573 69.579639 17.116668 -42.568057 -23.523726 0.000000 0.000000 0.000000 0.000000 0.000000 0.000000 8.141994 43.969190 64.111024 148.463873 18.629840 -80.754483 28.854399 38.821848 -21.274686 14.523741 3.896237 39.352868 0.000000 0.000000 0.000000 0.000000 0.000000 0.000000 75.517443 30.996723 75.816583 -12.243220 9.564890 -24.896084 -13.968542 31.887188 -45.793099 0.000000 0.000000 0.000000 12.634897 8.003259 18.175614 11.282270 -26.397166 43.257115 57.388741 -47.890796 11.026448 0.000000 0.000000 0.000000
48.890231 34.968609 374.075947 -39.807321 45.769390 -45.092288 -0.683743 0.265239 61.601322 0.047520 0.088002 -1.231446 0.921188 -6.797811 8.519496 0.000000 0.000000 0.000000 11.318059 48.035945 -13.806862 42.336426 7.725836 -2.482959 26.055437 -49.889453 62.327944 23.414685 -47.628730 -15.202634 0.000000 0.000000 0.000000 0.000000 0.000000 0.000000 7.871762 42.299602 62.961583 124.365339 35.760737 -110.314590 -72.146198 61.587061 110.906930 10.624070 -1.886878 47.617034 0.000000 0.000000 0.000000 0.000000 0.000000 0.000000 73.858969 30.081363 78.135786 -10.867697 8.897208 -26.592537 -14.452556 30.565856 -45.528100 0.000000 0.000000 0.000000 12.714297 7.343912 17.421142 11.210481 -26.286829 43.591316 57.074616 -47.665336 10.839757 0.000000 0.000000 0.000000
49.235530 35.073323 373.820426 -40.026364 45.621898 -45.250787 -0.808995 0.155540 61.733543 0.038270 0.037876 -1.272281 2.467518 -5.588064 10.002711 0.000000 0.000000 0.000000 11.271837 46.987098 -13.362797 41.877261 7.957740 -5.663613 25.309405 -46.651803 61.342524 33.960993 -51.474960 -9.019076 0.000000 0.000000 0.000000 0.000000 0.000000 0.000000 6.240250 42.375594 64.130265 165.454926 34.383962 106.217992 -2.368983 -54.254693 -151.700418 -2.998041 17.977803 51.424092 0.000000 0.000000 0.000000 0.000000 0.000000 0.000000 73.624242 30.323649 78.406598 -10.683840 8.945923 -26.906050 -13.697908 29.525105 -46.283258 0.000000 0.000000 0.000000 12.360474 7.607818 18.025790 11.385951 -26.435548 43.284171 57.215214 -47.774383 10.920278 0.000000 0.000000 0.000000
49.420192 35.093691 373.375814 -40.531643 45.623332 -43.941025 -0.557224 0.229856 60.678283 -0.063189 -0.176738 -1.407320 4.029872 -4.050301 11.576983 0.000000 0.000000 0.000000 10.606827 46.897471 -13.258622 41.969693 7.833738 -5.918285 25.789723 -44.527994 60.533903 38.992695 -52.656661 -6.681087 0.000000 0.000000 0.000000 0.000000 0.000000 0.000000 4.721687 39.020364 62.410274 165.977481 16.978203 73.993025 74.885129 -35.808159 -80.296286 -2.119805 18.053539 47.713200 0.000000 0.000000 0.000000 0.000000 0.000000 0.000000 76.742246 31.595259 76.141199 -14.052049 11.033067 -25.965799 -11.122517 30.354362 -50.176132 0.000000 0.000000 0.000000 12.551047 7.531269 17.649540 11.308648 -26.504538 42.629859 57.473490 -47.972969 11.075520 0.000000 0.000000 0.000000
49.842850 34.935192 373.413924 -40.176995 45.092903 -45.296500 -0.648848 0.282895 61.688335 -0.231144 -0.178262 -1.498468 5.904189 -1.609726 13.681046 0.000000 0.000000 0.000000 9.783194 46.865686 -13.279505 42.146408 7.725356 -5.551908 25.402165 -44.018526 60.075031 43.100793 -54.519154 -7.363355 0.000000 0.000000 0.000000 0.000000 0.000000 0.000000 3.607543 39.810667 63.360692 154.746479 1.271063 65.018341 96.870594 -28.332170 -75.639172 1.191793 23.183851 44.229253 0.000000 0.000000 0.000000 0.000000 0.000000 0.000000 76.957750 32.780218 74.897712 -15.077205 11.248108 -24.663940 -8.547691 28.891143 -53.563766 0.000000 0.000000 0.000000 11.491230 8.038487 18.723317 11.731218 -26.754169 42.718968 56.813998 -47.359361 10.959449 0.000000 0.000000 0.000000
50.241608 34.660789 373.968884 -39.044960 44.554627 -48.020569 -0.884033 0.171398 63.655560 -0.464466 -0.051186 -1.563872 5.569664 -0.904109 13.746450 0.000000 0.000000 0.000000 9.413292 47.456168 -13.434151 42.319577 7.556908 -4.690890 25.471751 -44.524605 60.091813 37.871794 -54.678506 -12.346129 0.000000 0.000000 0.000000 0.000000 0.000000 0.000000 5.687592 40.138409 62.096987 164.745718 13.767024 101.104170 27.388464 -61.661656 -138.394642 1.492369 38.131034 44.891228 0.000000 0.000000 0.000000 0.000000 0.000000 0.000000 75.973220 34.069509 74.262193 -14.947207 11.652937 -23.374453 -8.400491 29.076253 -53.750375 0.000000 0.000000 0.000000 10.623052 8.168175 20.504592 11.131763 -26.612085 42.693110 56.041420 -46.587463 10.351281 0.000000 0.000000 0.000000
50.619037 34.410638 374.594278 -37.815653 44.346933 -51.847891 -0.941678 0.011304 66.814655 -0.642406 0.109877 -1.573844 3.576518 -1.628971 12.298241 0.000000 0.000000 0.000000 9.941120 47.529453 -13.536939 42.096365 7.332235 -4.035872 30.824968 -44.635424 62.191601 23.377107 -49.642923 -19.830713 0.000000 0.000000 0.000000 0.000000 0.000000 0.000000 7.950186 35.879150 57.321409 159.699835 65.768522 153.795091 -62.898853 3.293695 162.981858 -4.476693 38.961736 55.381686 0.000000 0.000000 0.000000 0.000000 0.000000 0.000000 74.101161 35.770428 74.846171 -14.500903 11.582449 -22.110238 -9.381780 30.644304 -51.694748 0.000000 0.000000 0.000000 10.328709 8.114424 23.233315 10.412500 -26.111722 42.830043 55.067021 -45.918968 9.510755 0.000000 0.000000 0.000000
